<mxfile host="app.diagrams.net" modified="2022-09-23T10:56:19.483Z" agent="5.0 (Windows NT 10.0; Win64; x64) AppleWebKit/537.36 (KHTML, like Gecko) Chrome/105.0.0.0 Safari/537.36" etag="fGgp7jnh-hh8UkhJEQlv" version="20.3.6" type="github">
  <diagram id="ds0K4tFqCAFqR50HNbNL" name="Page-1">
    <mxGraphModel dx="1718" dy="935" grid="1" gridSize="10" guides="1" tooltips="1" connect="1" arrows="1" fold="1" page="1" pageScale="1" pageWidth="850" pageHeight="1100" math="0" shadow="0">
      <root>
        <mxCell id="0" />
        <mxCell id="1" parent="0" />
        <mxCell id="fZgHb_uzZiKMJdekkGli-10" style="edgeStyle=orthogonalEdgeStyle;orthogonalLoop=1;jettySize=auto;html=1;entryX=0.5;entryY=0;entryDx=0;entryDy=0;entryPerimeter=0;curved=1;" edge="1" parent="1" source="fZgHb_uzZiKMJdekkGli-1" target="fZgHb_uzZiKMJdekkGli-7">
          <mxGeometry relative="1" as="geometry">
            <mxPoint x="155" y="410" as="targetPoint" />
            <Array as="points">
              <mxPoint x="115" y="360" />
              <mxPoint x="225" y="360" />
            </Array>
          </mxGeometry>
        </mxCell>
        <mxCell id="fZgHb_uzZiKMJdekkGli-15" style="edgeStyle=orthogonalEdgeStyle;rounded=0;orthogonalLoop=1;jettySize=auto;html=1;entryX=0;entryY=0.5;entryDx=0;entryDy=0;fillColor=#008a00;strokeColor=#005700;" edge="1" parent="1" source="fZgHb_uzZiKMJdekkGli-1" target="fZgHb_uzZiKMJdekkGli-2">
          <mxGeometry relative="1" as="geometry" />
        </mxCell>
        <mxCell id="fZgHb_uzZiKMJdekkGli-1" value="v1.0.0" style="rounded=1;whiteSpace=wrap;html=1;fillColor=#d5e8d4;strokeColor=#82b366;" vertex="1" parent="1">
          <mxGeometry x="85" y="270" width="50" height="30" as="geometry" />
        </mxCell>
        <mxCell id="fZgHb_uzZiKMJdekkGli-11" style="edgeStyle=orthogonalEdgeStyle;rounded=0;orthogonalLoop=1;jettySize=auto;html=1;entryX=0.5;entryY=0;entryDx=0;entryDy=0;entryPerimeter=0;" edge="1" parent="1" source="fZgHb_uzZiKMJdekkGli-2" target="fZgHb_uzZiKMJdekkGli-7">
          <mxGeometry relative="1" as="geometry">
            <Array as="points">
              <mxPoint x="225" y="390" />
              <mxPoint x="225" y="390" />
            </Array>
          </mxGeometry>
        </mxCell>
        <mxCell id="fZgHb_uzZiKMJdekkGli-16" style="edgeStyle=orthogonalEdgeStyle;rounded=0;orthogonalLoop=1;jettySize=auto;html=1;fillColor=#008a00;strokeColor=#005700;" edge="1" parent="1" source="fZgHb_uzZiKMJdekkGli-2" target="fZgHb_uzZiKMJdekkGli-3">
          <mxGeometry relative="1" as="geometry" />
        </mxCell>
        <mxCell id="fZgHb_uzZiKMJdekkGli-2" value="v1.0.2" style="rounded=1;whiteSpace=wrap;html=1;fillColor=#d5e8d4;strokeColor=#82b366;" vertex="1" parent="1">
          <mxGeometry x="200" y="270" width="50" height="30" as="geometry" />
        </mxCell>
        <mxCell id="fZgHb_uzZiKMJdekkGli-17" style="edgeStyle=orthogonalEdgeStyle;curved=1;orthogonalLoop=1;jettySize=auto;html=1;entryX=0;entryY=0.5;entryDx=0;entryDy=0;fillColor=#008a00;strokeColor=#005700;" edge="1" parent="1" source="fZgHb_uzZiKMJdekkGli-3" target="fZgHb_uzZiKMJdekkGli-4">
          <mxGeometry relative="1" as="geometry" />
        </mxCell>
        <mxCell id="fZgHb_uzZiKMJdekkGli-21" style="edgeStyle=orthogonalEdgeStyle;curved=1;orthogonalLoop=1;jettySize=auto;html=1;entryX=0.5;entryY=0;entryDx=0;entryDy=0;entryPerimeter=0;" edge="1" parent="1" source="fZgHb_uzZiKMJdekkGli-3" target="fZgHb_uzZiKMJdekkGli-7">
          <mxGeometry relative="1" as="geometry">
            <Array as="points">
              <mxPoint x="345" y="360" />
              <mxPoint x="225" y="360" />
            </Array>
          </mxGeometry>
        </mxCell>
        <mxCell id="fZgHb_uzZiKMJdekkGli-3" value="v1.2.0" style="rounded=1;whiteSpace=wrap;html=1;fillColor=#d5e8d4;strokeColor=#82b366;" vertex="1" parent="1">
          <mxGeometry x="315" y="270" width="60" height="30" as="geometry" />
        </mxCell>
        <mxCell id="fZgHb_uzZiKMJdekkGli-31" style="edgeStyle=orthogonalEdgeStyle;curved=1;orthogonalLoop=1;jettySize=auto;html=1;entryX=0.5;entryY=0;entryDx=0;entryDy=0;entryPerimeter=0;" edge="1" parent="1" source="fZgHb_uzZiKMJdekkGli-4" target="fZgHb_uzZiKMJdekkGli-8">
          <mxGeometry relative="1" as="geometry" />
        </mxCell>
        <mxCell id="fZgHb_uzZiKMJdekkGli-33" style="edgeStyle=orthogonalEdgeStyle;curved=1;orthogonalLoop=1;jettySize=auto;html=1;entryX=0;entryY=0.5;entryDx=0;entryDy=0;fillColor=#008a00;strokeColor=#005700;" edge="1" parent="1" source="fZgHb_uzZiKMJdekkGli-4" target="fZgHb_uzZiKMJdekkGli-28">
          <mxGeometry relative="1" as="geometry" />
        </mxCell>
        <mxCell id="fZgHb_uzZiKMJdekkGli-4" value="v2.0.0" style="rounded=1;whiteSpace=wrap;html=1;fillColor=#d5e8d4;strokeColor=#82b366;" vertex="1" parent="1">
          <mxGeometry x="465" y="270" width="80" height="30" as="geometry" />
        </mxCell>
        <mxCell id="fZgHb_uzZiKMJdekkGli-5" value="版本说明：&lt;br&gt;v1.0.0&amp;nbsp; 初始版本，&lt;br&gt;v1.0.2&amp;nbsp; 此版本只修改部分js文件&lt;br&gt;v1.2.0&amp;nbsp; 此版本修改js文件，增加了js第三方库，但是该js文件未引用Objective-C原生代码&lt;br&gt;v2.0.0&amp;nbsp; 此版本修改或添加了Objective-C文件（或新增的RN第三方库引用了Objective-C原生文件）&lt;br&gt;v2.1.0&amp;nbsp; 未涉及到Objective-C的修改或添加（场景跟v.1.0.0，v1.0.2，v1.2.0类似）" style="text;html=1;align=left;verticalAlign=middle;resizable=0;points=[];autosize=1;strokeColor=#10739e;fillColor=#b1ddf0;" vertex="1" parent="1">
          <mxGeometry x="40" y="20" width="540" height="100" as="geometry" />
        </mxCell>
        <mxCell id="fZgHb_uzZiKMJdekkGli-7" value="1.1&lt;br&gt;" style="shape=cylinder3;whiteSpace=wrap;html=1;boundedLbl=1;backgroundOutline=1;size=15;fillColor=#ffe6cc;strokeColor=#d79b00;" vertex="1" parent="1">
          <mxGeometry x="195" y="410" width="60" height="80" as="geometry" />
        </mxCell>
        <mxCell id="fZgHb_uzZiKMJdekkGli-8" value="1.1&lt;br&gt;" style="shape=cylinder3;whiteSpace=wrap;html=1;boundedLbl=1;backgroundOutline=1;size=15;fillColor=#f8cecc;strokeColor=#b85450;" vertex="1" parent="1">
          <mxGeometry x="545" y="410" width="60" height="80" as="geometry" />
        </mxCell>
        <mxCell id="fZgHb_uzZiKMJdekkGli-25" value="" style="rounded=0;whiteSpace=wrap;html=1;labelBorderColor=default;gradientColor=none;shadow=0;sketch=0;glass=0;fillStyle=hatch;strokeWidth=1;fillColor=none;" vertex="1" parent="1">
          <mxGeometry x="50" y="240" width="345" height="270" as="geometry" />
        </mxCell>
        <mxCell id="fZgHb_uzZiKMJdekkGli-30" style="edgeStyle=orthogonalEdgeStyle;curved=1;orthogonalLoop=1;jettySize=auto;html=1;" edge="1" parent="1" source="fZgHb_uzZiKMJdekkGli-28" target="fZgHb_uzZiKMJdekkGli-8">
          <mxGeometry relative="1" as="geometry" />
        </mxCell>
        <mxCell id="fZgHb_uzZiKMJdekkGli-28" value="v2.0.0" style="rounded=1;whiteSpace=wrap;html=1;fillColor=#d5e8d4;strokeColor=#82b366;" vertex="1" parent="1">
          <mxGeometry x="595" y="270" width="80" height="30" as="geometry" />
        </mxCell>
        <mxCell id="fZgHb_uzZiKMJdekkGli-32" value="" style="rounded=0;whiteSpace=wrap;html=1;shadow=0;glass=0;labelBorderColor=default;sketch=0;fillStyle=hatch;strokeWidth=1;fillColor=none;gradientColor=none;" vertex="1" parent="1">
          <mxGeometry x="435" y="240" width="280" height="270" as="geometry" />
        </mxCell>
        <mxCell id="fZgHb_uzZiKMJdekkGli-34" value="用户A" style="shape=umlActor;verticalLabelPosition=bottom;verticalAlign=top;html=1;outlineConnect=0;rounded=0;shadow=0;glass=0;labelBorderColor=default;sketch=0;fillStyle=hatch;strokeWidth=1;fillColor=#b0e3e6;strokeColor=#0e8088;" vertex="1" parent="1">
          <mxGeometry x="50" y="170" width="30" height="40" as="geometry" />
        </mxCell>
        <mxCell id="fZgHb_uzZiKMJdekkGli-36" value="用户B" style="shape=umlActor;verticalLabelPosition=bottom;verticalAlign=top;html=1;outlineConnect=0;rounded=0;shadow=0;glass=0;labelBorderColor=default;sketch=0;fillStyle=hatch;strokeWidth=1;fillColor=#fad7ac;strokeColor=#b46504;" vertex="1" parent="1">
          <mxGeometry x="435" y="170" width="30" height="40" as="geometry" />
        </mxCell>
        <mxCell id="fZgHb_uzZiKMJdekkGli-43" value="用户A最多只能升级到v1.2.0版本，无法升级到更高的版本；&lt;br&gt;如何让用户A使用更高版本，只能通过弹窗提示用户到落地页下载新版本&lt;br&gt;&lt;br&gt;弹窗升级方式：&lt;br&gt;RN代码中定义一个版本变量，如&amp;nbsp;export const appVersion = &quot;1.2.0&quot;&lt;br&gt;后台提供接口，此接口可以返回需要升级的版本数组（需要是数组，因为用户的版本可能不同），&lt;br&gt;落地页下载链接，升级提示内容，是否开启升级提示，强制升级还是非强制升级，" style="text;html=1;align=left;verticalAlign=middle;resizable=0;points=[];autosize=1;strokeColor=#10739e;fillColor=#b1ddf0;" vertex="1" parent="1">
          <mxGeometry x="40" y="550" width="540" height="110" as="geometry" />
        </mxCell>
        <mxCell id="fZgHb_uzZiKMJdekkGli-44" value="热更仓库" style="shape=cylinder3;whiteSpace=wrap;html=1;boundedLbl=1;backgroundOutline=1;size=15;rounded=0;shadow=0;glass=0;labelBorderColor=none;sketch=0;fillStyle=hatch;strokeWidth=1;fillColor=none;gradientColor=none;" vertex="1" parent="1">
          <mxGeometry x="780" y="80" width="60" height="80" as="geometry" />
        </mxCell>
        <mxCell id="fZgHb_uzZiKMJdekkGli-45" value="产品版本" style="rounded=1;whiteSpace=wrap;html=1;shadow=0;glass=0;labelBorderColor=none;sketch=0;fillStyle=hatch;strokeWidth=1;fillColor=none;gradientColor=none;" vertex="1" parent="1">
          <mxGeometry x="780" y="40" width="60" height="30" as="geometry" />
        </mxCell>
      </root>
    </mxGraphModel>
  </diagram>
</mxfile>
